<svg version="1.0" xmlns="http://www.w3.org/2000/svg"
    width="1045.000000pt" height="1045.000000pt" viewBox="0 0 1045.000000 1045.000000"
    preserveAspectRatio="xMidYMid meet">

    <g transform="translate(0.000000,1045.000000) scale(0.100000,-0.100000)"
        fill="#FFFFFF" stroke="none">
        <path
            d="M190 9595 l0 -665 665 0 665 0 0 665 0 665 -665 0 -665 0 0 -665z
m1140 0 l0 -475 -475 0 -475 0 0 475 0 475 475 0 475 0 0 -475z" />
        <path d="M570 9595 l0 -285 285 0 285 0 0 285 0 285 -285 0 -285 0 0 -285z" />
        <path
            d="M1900 10165 l0 -95 -95 0 -95 0 0 -190 0 -190 95 0 95 0 0 -95 0 -95
-95 0 -95 0 0 -380 0 -380 -190 0 -190 0 0 -95 0 -95 -190 0 -190 0 0 95 0 95
-95 0 -95 0 0 -95 0 -95 -95 0 -95 0 0 95 0 95 -190 0 -190 0 0 -190 0 -190
190 0 190 0 0 -190 0 -190 -95 0 -95 0 0 95 0 95 -95 0 -95 0 0 -95 0 -95 95
0 95 0 0 -95 0 -95 95 0 95 0 0 95 0 95 95 0 95 0 0 -190 0 -190 -285 0 -285
0 0 -190 0 -190 95 0 95 0 0 95 0 95 95 0 95 0 0 -190 0 -190 190 0 190 0 0
95 0 95 -95 0 -95 0 0 190 0 190 95 0 95 0 0 95 0 95 95 0 95 0 0 95 0 95 -95
0 -95 0 0 95 0 95 -95 0 -95 0 0 190 0 190 95 0 95 0 0 -95 0 -95 95 0 95 0 0
-95 0 -95 190 0 190 0 0 -95 0 -95 -95 0 -95 0 0 -95 0 -95 95 0 95 0 0 95 0
95 95 0 95 0 0 -190 0 -190 -190 0 -190 0 0 -95 0 -95 285 0 285 0 0 285 0
285 95 0 95 0 0 -95 0 -95 95 0 95 0 0 -95 0 -95 95 0 95 0 0 285 0 285 95 0
95 0 0 95 0 95 95 0 95 0 0 95 0 95 95 0 95 0 0 285 0 285 95 0 95 0 0 -95 0
-95 95 0 95 0 0 -95 0 -95 -95 0 -95 0 0 -95 0 -95 95 0 95 0 0 -95 0 -95 -95
0 -95 0 0 -95 0 -95 -95 0 -95 0 0 -95 0 -95 -190 0 -190 0 0 -95 0 -95 95 0
95 0 0 -95 0 -95 190 0 190 0 0 -190 0 -190 -285 0 -285 0 0 -95 0 -95 95 0
95 0 0 -95 0 -95 -190 0 -190 0 0 -95 0 -95 -95 0 -95 0 0 95 0 95 -475 0
-475 0 0 95 0 95 95 0 95 0 0 95 0 95 -190 0 -190 0 0 -190 0 -190 -285 0
-285 0 0 -95 0 -95 -95 0 -95 0 0 95 0 95 -95 0 -95 0 0 -95 0 -95 95 0 95 0
0 -95 0 -95 190 0 190 0 0 95 0 95 95 0 95 0 0 -95 0 -95 95 0 95 0 0 -95 0
-95 190 0 190 0 0 -95 0 -95 -95 0 -95 0 0 -95 0 -95 95 0 95 0 0 -95 0 -95
-190 0 -190 0 0 95 0 95 -95 0 -95 0 0 190 0 190 -95 0 -95 0 0 -95 0 -95
-190 0 -190 0 0 95 0 95 -95 0 -95 0 0 -190 0 -190 190 0 190 0 0 -95 0 -95
-190 0 -190 0 0 -95 0 -95 190 0 190 0 0 95 0 95 190 0 190 0 0 -95 0 -95 -95
0 -95 0 0 -95 0 -95 -285 0 -285 0 0 -190 0 -190 95 0 95 0 0 -190 0 -190 190
0 190 0 0 -95 0 -95 -95 0 -95 0 0 -95 0 -95 95 0 95 0 0 95 0 95 95 0 95 0 0
-190 0 -190 -380 0 -380 0 0 -380 0 -380 285 0 285 0 0 190 0 190 95 0 95 0 0
190 0 190 95 0 95 0 0 380 0 380 285 0 285 0 0 -95 0 -95 190 0 190 0 0 95 0
95 -95 0 -95 0 0 95 0 95 95 0 95 0 0 95 0 95 95 0 95 0 0 -475 0 -475 -95 0
-95 0 0 95 0 95 -285 0 -285 0 0 95 0 95 -95 0 -95 0 0 -95 0 -95 95 0 95 0 0
-95 0 -95 -95 0 -95 0 0 -95 0 -95 95 0 95 0 0 95 0 95 95 0 95 0 0 -95 0 -95
95 0 95 0 0 95 0 95 95 0 95 0 0 -95 0 -95 190 0 190 0 0 -95 0 -95 -95 0 -95
0 0 -190 0 -190 -190 0 -190 0 0 -95 0 -95 -95 0 -95 0 0 -95 0 -95 95 0 95 0
0 95 0 95 95 0 95 0 0 -190 0 -190 95 0 95 0 0 95 0 95 95 0 95 0 0 95 0 95
285 0 285 0 0 285 0 285 -95 0 -95 0 0 -95 0 -95 -95 0 -95 0 0 285 0 285 95
0 95 0 0 95 0 95 95 0 95 0 0 -95 0 -95 95 0 95 0 0 -95 0 -95 95 0 95 0 0
-95 0 -95 -95 0 -95 0 0 -95 0 -95 95 0 95 0 0 -95 0 -95 95 0 95 0 0 -285 0
-285 95 0 95 0 0 190 0 190 95 0 95 0 0 95 0 95 95 0 95 0 0 -95 0 -95 95 0
95 0 0 -95 0 -95 -95 0 -95 0 0 -95 0 -95 95 0 95 0 0 -95 0 -95 285 0 285 0
0 190 0 190 -190 0 -190 0 0 190 0 190 -190 0 -190 0 0 95 0 95 95 0 95 0 0
95 0 95 190 0 190 0 0 -285 0 -285 190 0 190 0 0 -190 0 -190 95 0 95 0 0 95
0 95 285 0 285 0 0 95 0 95 -95 0 -95 0 0 95 0 95 -95 0 -95 0 0 -95 0 -95
-95 0 -95 0 0 95 0 95 -190 0 -190 0 0 190 0 190 95 0 95 0 0 -95 0 -95 95 0
95 0 0 95 0 95 -95 0 -95 0 0 285 0 285 95 0 95 0 0 190 0 190 190 0 190 0 0
-190 0 -190 -95 0 -95 0 0 -380 0 -380 95 0 95 0 0 190 0 190 95 0 95 0 0 95
0 95 -95 0 -95 0 0 95 0 95 95 0 95 0 0 190 0 190 95 0 95 0 0 -95 0 -95 95 0
95 0 0 -95 0 -95 -95 0 -95 0 0 -285 0 -285 95 0 95 0 0 -95 0 -95 -95 0 -95
0 0 -95 0 -95 95 0 95 0 0 -95 0 -95 95 0 95 0 0 95 0 95 -95 0 -95 0 0 95 0
95 190 0 190 0 0 -95 0 -95 95 0 95 0 0 -95 0 -95 -95 0 -95 0 0 -95 0 -95 95
0 95 0 0 -95 0 -95 -190 0 -190 0 0 95 0 95 -190 0 -190 0 0 -95 0 -95 95 0
95 0 0 -190 0 -190 -95 0 -95 0 0 95 0 95 -475 0 -475 0 0 -95 0 -95 -190 0
-190 0 0 -95 0 -95 95 0 95 0 0 -190 0 -190 -95 0 -95 0 0 -190 0 -190 -95 0
-95 0 0 -190 0 -190 -95 0 -95 0 0 95 0 95 -95 0 -95 0 0 95 0 95 95 0 95 0 0
95 0 95 95 0 95 0 0 95 0 95 -95 0 -95 0 0 95 0 95 95 0 95 0 0 190 0 190 -95
0 -95 0 0 -190 0 -190 -95 0 -95 0 0 190 0 190 -190 0 -190 0 0 95 0 95 -190
0 -190 0 0 285 0 285 -95 0 -95 0 0 -95 0 -95 -285 0 -285 0 0 -95 0 -95 -95
0 -95 0 0 -95 0 -95 285 0 285 0 0 -95 0 -95 -190 0 -190 0 0 -95 0 -95 95 0
95 0 0 -95 0 -95 -95 0 -95 0 0 -95 0 -95 95 0 95 0 0 95 0 95 95 0 95 0 0
-95 0 -95 95 0 95 0 0 95 0 95 -95 0 -95 0 0 190 0 190 95 0 95 0 0 95 0 95
95 0 95 0 0 -95 0 -95 190 0 190 0 0 -190 0 -190 190 0 190 0 0 -285 0 -285
-95 0 -95 0 0 -190 0 -190 -95 0 -95 0 0 95 0 95 -95 0 -95 0 0 190 0 190 190
0 190 0 0 95 0 95 -190 0 -190 0 0 -95 0 -95 -95 0 -95 0 0 -95 0 -95 -190 0
-190 0 0 95 0 95 -95 0 -95 0 0 -190 0 -190 -190 0 -190 0 0 -285 0 -285 -95
0 -95 0 0 285 0 285 -95 0 -95 0 0 95 0 95 -95 0 -95 0 0 285 0 285 190 0 190
0 0 -95 0 -95 -95 0 -95 0 0 -95 0 -95 190 0 190 0 0 190 0 190 -95 0 -95 0 0
95 0 95 95 0 95 0 0 95 0 95 -95 0 -95 0 0 95 0 95 -95 0 -95 0 0 -95 0 -95
-95 0 -95 0 0 -190 0 -190 -95 0 -95 0 0 95 0 95 -285 0 -285 0 0 190 0 190
95 0 95 0 0 -95 0 -95 190 0 190 0 0 95 0 95 95 0 95 0 0 95 0 95 -190 0 -190
0 0 95 0 95 -95 0 -95 0 0 -95 0 -95 -475 0 -475 0 0 -95 0 -95 -95 0 -95 0 0
-285 0 -285 95 0 95 0 0 -95 0 -95 190 0 190 0 0 -95 0 -95 95 0 95 0 0 95 0
95 -95 0 -95 0 0 95 0 95 380 0 380 0 0 -95 0 -95 -95 0 -95 0 0 -95 0 -95 95
0 95 0 0 95 0 95 95 0 95 0 0 -285 0 -285 190 0 190 0 0 -190 0 -190 -190 0
-190 0 0 -95 0 -95 95 0 95 0 0 -95 0 -95 -95 0 -95 0 0 -190 0 -190 380 0
380 0 0 190 0 190 95 0 95 0 0 95 0 95 95 0 95 0 0 -190 0 -190 -95 0 -95 0 0
-95 0 -95 95 0 95 0 0 95 0 95 95 0 95 0 0 190 0 190 95 0 95 0 0 -95 0 -95
95 0 95 0 0 -95 0 -95 -95 0 -95 0 0 -95 0 -95 570 0 570 0 0 95 0 95 95 0 95
0 0 95 0 95 95 0 95 0 0 -190 0 -190 380 0 380 0 0 95 0 95 95 0 95 0 0 -95 0
-95 95 0 95 0 0 95 0 95 95 0 95 0 0 95 0 95 190 0 190 0 0 190 0 190 95 0 95
0 0 -95 0 -95 95 0 95 0 0 95 0 95 -95 0 -95 0 0 190 0 190 95 0 95 0 0 -95 0
-95 95 0 95 0 0 -380 0 -380 -95 0 -95 0 0 95 0 95 -95 0 -95 0 0 -190 0 -190
475 0 475 0 0 95 0 95 -95 0 -95 0 0 95 0 95 -95 0 -95 0 0 95 0 95 95 0 95 0
0 95 0 95 -95 0 -95 0 0 95 0 95 190 0 190 0 0 -190 0 -190 95 0 95 0 0 95 0
95 285 0 285 0 0 -95 0 -95 -190 0 -190 0 0 -95 0 -95 -95 0 -95 0 0 -95 0
-95 380 0 380 0 0 -95 0 -95 95 0 95 0 0 95 0 95 -95 0 -95 0 0 95 0 95 -95 0
-95 0 0 95 0 95 190 0 190 0 0 -95 0 -95 95 0 95 0 0 95 0 95 -95 0 -95 0 0
95 0 95 190 0 190 0 0 -95 0 -95 95 0 95 0 0 -95 0 -95 -95 0 -95 0 0 -95 0
-95 95 0 95 0 0 -95 0 -95 380 0 380 0 0 380 0 380 95 0 95 0 0 95 0 95 -190
0 -190 0 0 95 0 95 95 0 95 0 0 190 0 190 95 0 95 0 0 285 0 285 -95 0 -95 0
0 95 0 95 95 0 95 0 0 95 0 95 -95 0 -95 0 0 95 0 95 95 0 95 0 0 95 0 95 -95
0 -95 0 0 -95 0 -95 -95 0 -95 0 0 95 0 95 -285 0 -285 0 0 95 0 95 95 0 95 0
0 190 0 190 -95 0 -95 0 0 -190 0 -190 -190 0 -190 0 0 -95 0 -95 -190 0 -190
0 0 95 0 95 95 0 95 0 0 190 0 190 -95 0 -95 0 0 190 0 190 -95 0 -95 0 0 95
0 95 95 0 95 0 0 95 0 95 -95 0 -95 0 0 95 0 95 -95 0 -95 0 0 95 0 95 95 0
95 0 0 95 0 95 95 0 95 0 0 -190 0 -190 95 0 95 0 0 -285 0 -285 95 0 95 0 0
-95 0 -95 190 0 190 0 0 190 0 190 190 0 190 0 0 95 0 95 -285 0 -285 0 0 95
0 95 95 0 95 0 0 95 0 95 190 0 190 0 0 -95 0 -95 95 0 95 0 0 -95 0 -95 190
0 190 0 0 95 0 95 -190 0 -190 0 0 95 0 95 95 0 95 0 0 95 0 95 -285 0 -285 0
0 95 0 95 95 0 95 0 0 95 0 95 95 0 95 0 0 -95 0 -95 190 0 190 0 0 285 0 285
-95 0 -95 0 0 190 0 190 -95 0 -95 0 0 95 0 95 190 0 190 0 0 95 0 95 -380 0
-380 0 0 95 0 95 380 0 380 0 0 95 0 95 -95 0 -95 0 0 95 0 95 95 0 95 0 0 95
0 95 -95 0 -95 0 0 -95 0 -95 -190 0 -190 0 0 -95 0 -95 -95 0 -95 0 0 190 0
190 95 0 95 0 0 95 0 95 285 0 285 0 0 190 0 190 -95 0 -95 0 0 -95 0 -95 -95
0 -95 0 0 285 0 285 95 0 95 0 0 285 0 285 -190 0 -190 0 0 -95 0 -95 -95 0
-95 0 0 95 0 95 -285 0 -285 0 0 -95 0 -95 285 0 285 0 0 -95 0 -95 -190 0
-190 0 0 -190 0 -190 -95 0 -95 0 0 190 0 190 -190 0 -190 0 0 95 0 95 -95 0
-95 0 0 -95 0 -95 -95 0 -95 0 0 -95 0 -95 95 0 95 0 0 -190 0 -190 95 0 95 0
0 95 0 95 95 0 95 0 0 -380 0 -380 95 0 95 0 0 -95 0 -95 190 0 190 0 0 -95 0
-95 -285 0 -285 0 0 95 0 95 -190 0 -190 0 0 -95 0 -95 190 0 190 0 0 -95 0
-95 -285 0 -285 0 0 95 0 95 -95 0 -95 0 0 95 0 95 -95 0 -95 0 0 95 0 95
-190 0 -190 0 0 -95 0 -95 -95 0 -95 0 0 95 0 95 -95 0 -95 0 0 95 0 95 -95 0
-95 0 0 95 0 95 95 0 95 0 0 95 0 95 190 0 190 0 0 95 0 95 -95 0 -95 0 0 95
0 95 -95 0 -95 0 0 -95 0 -95 -190 0 -190 0 0 190 0 190 -95 0 -95 0 0 95 0
95 190 0 190 0 0 -95 0 -95 190 0 190 0 0 190 0 190 95 0 95 0 0 95 0 95 95 0
95 0 0 -190 0 -190 285 0 285 0 0 95 0 95 95 0 95 0 0 475 0 475 95 0 95 0 0
-95 0 -95 95 0 95 0 0 95 0 95 -95 0 -95 0 0 190 0 190 -95 0 -95 0 0 95 0 95
-95 0 -95 0 0 -190 0 -190 -95 0 -95 0 0 -380 0 -380 -95 0 -95 0 0 -95 0 -95
-95 0 -95 0 0 95 0 95 -95 0 -95 0 0 95 0 95 95 0 95 0 0 95 0 95 95 0 95 0 0
190 0 190 -95 0 -95 0 0 -95 0 -95 -95 0 -95 0 0 95 0 95 -95 0 -95 0 0 -95 0
-95 95 0 95 0 0 -95 0 -95 -190 0 -190 0 0 -95 0 -95 -475 0 -475 0 0 95 0 95
-95 0 -95 0 0 95 0 95 285 0 285 0 0 95 0 95 95 0 95 0 0 -95 0 -95 190 0 190
0 0 95 0 95 -95 0 -95 0 0 190 0 190 -475 0 -475 0 0 -95 0 -95 -95 0 -95 0 0
95 0 95 -95 0 -95 0 0 -190 0 -190 190 0 190 0 0 -95 0 -95 -380 0 -380 0 0
95 0 95 -95 0 -95 0 0 95 0 95 190 0 190 0 0 95 0 95 -380 0 -380 0 0 -190 0
-190 -190 0 -190 0 0 190 0 190 -190 0 -190 0 0 -95 0 -95 -190 0 -190 0 0 95
0 95 -95 0 -95 0 0 -95 0 -95 -95 0 -95 0 0 95 0 95 -95 0 -95 0 0 -95 0 -95
95 0 95 0 0 -95 0 -95 -190 0 -190 0 0 95 0 95 -190 0 -190 0 0 95 0 95 -190
0 -190 0 0 -95z m2090 -190 l0 -95 -95 0 -95 0 0 -190 0 -190 95 0 95 0 0
-475 0 -475 95 0 95 0 0 -95 0 -95 95 0 95 0 0 -95 0 -95 95 0 95 0 0 190 0
190 475 0 475 0 0 -95 0 -95 95 0 95 0 0 95 0 95 190 0 190 0 0 -95 0 -95 -95
0 -95 0 0 -95 0 -95 -95 0 -95 0 0 -95 0 -95 -95 0 -95 0 0 -95 0 -95 -95 0
-95 0 0 -95 0 -95 95 0 95 0 0 -95 0 -95 -95 0 -95 0 0 -95 0 -95 190 0 190 0
0 285 0 285 95 0 95 0 0 95 0 95 95 0 95 0 0 95 0 95 190 0 190 0 0 -95 0 -95
95 0 95 0 0 -285 0 -285 95 0 95 0 0 -95 0 -95 95 0 95 0 0 -95 0 -95 -95 0
-95 0 0 -95 0 -95 95 0 95 0 0 -95 0 -95 -95 0 -95 0 0 -95 0 -95 95 0 95 0 0
-95 0 -95 95 0 95 0 0 190 0 190 95 0 95 0 0 95 0 95 95 0 95 0 0 95 0 95 95
0 95 0 0 -95 0 -95 95 0 95 0 0 -190 0 -190 -95 0 -95 0 0 -95 0 -95 -95 0
-95 0 0 -95 0 -95 190 0 190 0 0 95 0 95 95 0 95 0 0 95 0 95 95 0 95 0 0
-190 0 -190 -95 0 -95 0 0 -190 0 -190 95 0 95 0 0 95 0 95 95 0 95 0 0 190 0
190 95 0 95 0 0 -190 0 -190 -95 0 -95 0 0 -190 0 -190 -95 0 -95 0 0 -95 0
-95 95 0 95 0 0 -95 0 -95 -95 0 -95 0 0 -95 0 -95 -95 0 -95 0 0 95 0 95 95
0 95 0 0 95 0 95 -190 0 -190 0 0 190 0 190 -95 0 -95 0 0 95 0 95 -95 0 -95
0 0 -285 0 -285 95 0 95 0 0 -95 0 -95 95 0 95 0 0 -285 0 -285 95 0 95 0 0
-95 0 -95 95 0 95 0 0 -95 0 -95 -95 0 -95 0 0 -95 0 -95 95 0 95 0 0 -95 0
-95 -190 0 -190 0 0 -190 0 -190 95 0 95 0 0 95 0 95 190 0 190 0 0 -190 0
-190 -95 0 -95 0 0 -95 0 -95 -95 0 -95 0 0 -95 0 -95 285 0 285 0 0 -95 0
-95 95 0 95 0 0 95 0 95 475 0 475 0 0 -95 0 -95 -190 0 -190 0 0 -95 0 -95
95 0 95 0 0 -95 0 -95 -190 0 -190 0 0 -190 0 -190 -380 0 -380 0 0 -95 0 -95
-95 0 -95 0 0 -95 0 -95 95 0 95 0 0 -190 0 -190 -95 0 -95 0 0 95 0 95 -95 0
-95 0 0 -95 0 -95 -190 0 -190 0 0 95 0 95 -95 0 -95 0 0 95 0 95 -95 0 -95 0
0 -95 0 -95 -95 0 -95 0 0 380 0 380 -190 0 -190 0 0 95 0 95 -285 0 -285 0 0
95 0 95 95 0 95 0 0 95 0 95 95 0 95 0 0 -95 0 -95 190 0 190 0 0 -95 0 -95
95 0 95 0 0 190 0 190 -95 0 -95 0 0 95 0 95 95 0 95 0 0 95 0 95 -190 0 -190
0 0 95 0 95 190 0 190 0 0 190 0 190 -95 0 -95 0 0 -95 0 -95 -95 0 -95 0 0
95 0 95 95 0 95 0 0 95 0 95 95 0 95 0 0 190 0 190 -95 0 -95 0 0 -95 0 -95
-95 0 -95 0 0 -95 0 -95 -95 0 -95 0 0 95 0 95 95 0 95 0 0 95 0 95 95 0 95 0
0 95 0 95 95 0 95 0 0 95 0 95 190 0 190 0 0 95 0 95 95 0 95 0 0 190 0 190
-190 0 -190 0 0 -95 0 -95 -95 0 -95 0 0 95 0 95 -95 0 -95 0 0 -95 0 -95 -95
0 -95 0 0 -95 0 -95 95 0 95 0 0 -95 0 -95 -95 0 -95 0 0 -95 0 -95 -95 0 -95
0 0 -95 0 -95 -95 0 -95 0 0 -190 0 -190 -95 0 -95 0 0 190 0 190 95 0 95 0 0
285 0 285 95 0 95 0 0 190 0 190 -95 0 -95 0 0 -95 0 -95 -95 0 -95 0 0 -95 0
-95 -95 0 -95 0 0 95 0 95 -190 0 -190 0 0 285 0 285 190 0 190 0 0 -285 0
-285 95 0 95 0 0 190 0 190 95 0 95 0 0 190 0 190 -95 0 -95 0 0 190 0 190
-95 0 -95 0 0 -190 0 -190 -95 0 -95 0 0 190 0 190 -95 0 -95 0 0 -190 0 -190
-190 0 -190 0 0 95 0 95 -95 0 -95 0 0 -95 0 -95 -190 0 -190 0 0 95 0 95 95
0 95 0 0 95 0 95 -95 0 -95 0 0 190 0 190 -190 0 -190 0 0 190 0 190 95 0 95
0 0 95 0 95 -95 0 -95 0 0 95 0 95 -190 0 -190 0 0 95 0 95 -95 0 -95 0 0 -95
0 -95 -190 0 -190 0 0 -95 0 -95 95 0 95 0 0 -95 0 -95 95 0 95 0 0 95 0 95
95 0 95 0 0 -95 0 -95 95 0 95 0 0 -95 0 -95 -95 0 -95 0 0 -95 0 -95 -95 0
-95 0 0 95 0 95 -95 0 -95 0 0 95 0 95 -285 0 -285 0 0 -190 0 -190 285 0 285
0 0 -95 0 -95 -95 0 -95 0 0 -95 0 -95 95 0 95 0 0 -95 0 -95 95 0 95 0 0 190
0 190 380 0 380 0 0 -95 0 -95 -285 0 -285 0 0 -95 0 -95 -95 0 -95 0 0 -95 0
-95 -95 0 -95 0 0 -95 0 -95 190 0 190 0 0 95 0 95 190 0 190 0 0 95 0 95 95
0 95 0 0 -95 0 -95 -95 0 -95 0 0 -95 0 -95 95 0 95 0 0 -95 0 -95 -190 0
-190 0 0 -285 0 -285 -95 0 -95 0 0 -95 0 -95 190 0 190 0 0 285 0 285 190 0
190 0 0 -380 0 -380 95 0 95 0 0 190 0 190 95 0 95 0 0 -190 0 -190 -95 0 -95
0 0 -190 0 -190 -95 0 -95 0 0 190 0 190 -95 0 -95 0 0 -95 0 -95 -95 0 -95 0
0 -190 0 -190 -190 0 -190 0 0 95 0 95 95 0 95 0 0 190 0 190 -95 0 -95 0 0
-95 0 -95 -95 0 -95 0 0 95 0 95 -190 0 -190 0 0 95 0 95 -190 0 -190 0 0 190
0 190 95 0 95 0 0 190 0 190 -190 0 -190 0 0 -95 0 -95 -95 0 -95 0 0 -95 0
-95 95 0 95 0 0 -285 0 -285 -95 0 -95 0 0 95 0 95 -95 0 -95 0 0 285 0 285
-95 0 -95 0 0 95 0 95 -95 0 -95 0 0 -95 0 -95 -95 0 -95 0 0 190 0 190 190 0
190 0 0 95 0 95 95 0 95 0 0 95 0 95 95 0 95 0 0 95 0 95 95 0 95 0 0 95 0 95
-190 0 -190 0 0 -95 0 -95 -95 0 -95 0 0 95 0 95 95 0 95 0 0 190 0 190 95 0
95 0 0 -95 0 -95 95 0 95 0 0 190 0 190 95 0 95 0 0 95 0 95 95 0 95 0 0 95 0
95 95 0 95 0 0 95 0 95 95 0 95 0 0 95 0 95 190 0 190 0 0 95 0 95 -95 0 -95
0 0 95 0 95 -95 0 -95 0 0 95 0 95 95 0 95 0 0 285 0 285 -95 0 -95 0 0 -95 0
-95 -95 0 -95 0 0 95 0 95 95 0 95 0 0 95 0 95 -95 0 -95 0 0 95 0 95 95 0 95
0 0 190 0 190 -95 0 -95 0 0 -95 0 -95 -95 0 -95 0 0 95 0 95 95 0 95 0 0 190
0 190 190 0 190 0 0 95 0 95 95 0 95 0 0 -95z m2470 0 l0 -95 -95 0 -95 0 0
95 0 95 95 0 95 0 0 -95z m-3990 -190 l0 -95 285 0 285 0 0 -285 0 -285 -95 0
-95 0 0 -190 0 -190 -95 0 -95 0 0 -95 0 -95 -95 0 -95 0 0 95 0 95 -95 0 -95
0 0 -95 0 -95 -95 0 -95 0 0 -190 0 -190 95 0 95 0 0 -95 0 -95 -95 0 -95 0 0
95 0 95 -95 0 -95 0 0 190 0 190 -95 0 -95 0 0 95 0 95 95 0 95 0 0 380 0 380
95 0 95 0 0 -285 0 -285 95 0 95 0 0 95 0 95 95 0 95 0 0 -190 0 -190 95 0 95
0 0 285 0 285 -190 0 -190 0 0 95 0 95 95 0 95 0 0 95 0 95 -95 0 -95 0 0 95
0 95 95 0 95 0 0 -95z m2470 0 l0 -95 -95 0 -95 0 0 -475 0 -475 -285 0 -285
0 0 475 0 475 190 0 190 0 0 95 0 95 190 0 190 0 0 -95z m3420 0 l0 -95 -95 0
-95 0 0 95 0 95 95 0 95 0 0 -95z m-2850 -760 l0 -285 -285 0 -285 0 0 285 0
285 285 0 285 0 0 -285z m380 95 l0 -190 95 0 95 0 0 95 0 95 95 0 95 0 0
-190 0 -190 95 0 95 0 0 -95 0 -95 -95 0 -95 0 0 95 0 95 -190 0 -190 0 0 95
0 95 -95 0 -95 0 0 190 0 190 95 0 95 0 0 -190z m760 -95 l0 -95 95 0 95 0 0
95 0 95 95 0 95 0 0 -95 0 -95 95 0 95 0 0 95 0 95 95 0 95 0 0 -95 0 -95 -95
0 -95 0 0 -95 0 -95 -95 0 -95 0 0 -95 0 -95 -95 0 -95 0 0 95 0 95 -95 0 -95
0 0 95 0 95 -95 0 -95 0 0 95 0 95 95 0 95 0 0 -95z m1520 0 l0 -95 -95 0 -95
0 0 95 0 95 95 0 95 0 0 -95z m-6650 -570 l0 -95 -95 0 -95 0 0 95 0 95 95 0
95 0 0 -95z m8360 0 l0 -95 -95 0 -95 0 0 95 0 95 95 0 95 0 0 -95z m-6460
-475 l0 -190 -190 0 -190 0 0 95 0 95 95 0 95 0 0 95 0 95 95 0 95 0 0 -190z
m6270 0 l0 -190 -95 0 -95 0 0 -95 0 -95 95 0 95 0 0 -95 0 -95 -95 0 -95 0 0
-95 0 -95 -95 0 -95 0 0 190 0 190 -95 0 -95 0 0 -190 0 -190 -95 0 -95 0 0
190 0 190 95 0 95 0 0 190 0 190 95 0 95 0 0 -95 0 -95 95 0 95 0 0 190 0 190
95 0 95 0 0 -190z m-8360 -1235 l0 -95 95 0 95 0 0 -95 0 -95 95 0 95 0 0 -95
0 -95 -95 0 -95 0 0 95 0 95 -190 0 -190 0 0 190 0 190 95 0 95 0 0 -95z
m7980 -190 l0 -95 -190 0 -190 0 0 95 0 95 190 0 190 0 0 -95z m-7220 -475 l0
-380 -190 0 -190 0 0 95 0 95 95 0 95 0 0 285 0 285 95 0 95 0 0 -380z m7220
95 l0 -95 95 0 95 0 0 -95 0 -95 95 0 95 0 0 95 0 95 95 0 95 0 0 -95 0 -95
-95 0 -95 0 0 -95 0 -95 -190 0 -190 0 0 95 0 95 -95 0 -95 0 0 -95 0 -95 -95
0 -95 0 0 95 0 95 95 0 95 0 0 95 0 95 -95 0 -95 0 0 95 0 95 190 0 190 0 0
-95z m-7600 -950 l0 -285 -285 0 -285 0 0 285 0 285 285 0 285 0 0 -285z
m3800 0 l0 -285 -285 0 -285 0 0 285 0 285 285 0 285 0 0 -285z m3800 0 l0
-285 -285 0 -285 0 0 285 0 285 285 0 285 0 0 -285z m-8360 0 l0 -95 -95 0
-95 0 0 95 0 95 95 0 95 0 0 -95z m-380 -190 l0 -95 190 0 190 0 0 -95 0 -95
-190 0 -190 0 0 95 0 95 -95 0 -95 0 0 95 0 95 95 0 95 0 0 -95z m8360 -380
l0 -95 -95 0 -95 0 0 95 0 95 95 0 95 0 0 -95z m-5320 -570 l0 -95 95 0 95 0
0 -95 0 -95 -95 0 -95 0 0 95 0 95 -95 0 -95 0 0 95 0 95 95 0 95 0 0 -95z
m-3040 -475 l0 -190 -95 0 -95 0 0 190 0 190 95 0 95 0 0 -190z m2090 -95 l0
-95 -95 0 -95 0 0 -95 0 -95 -95 0 -95 0 0 95 0 95 95 0 95 0 0 95 0 95 95 0
95 0 0 -95z m1140 0 l0 -95 -95 0 -95 0 0 95 0 95 95 0 95 0 0 -95z m-2280
-760 l0 -95 -95 0 -95 0 0 95 0 95 95 0 95 0 0 -95z m1710 0 l0 -95 -95 0 -95
0 0 95 0 95 95 0 95 0 0 -95z m-2280 -285 l0 -190 -95 0 -95 0 0 -95 0 -95
-95 0 -95 0 0 285 0 285 190 0 190 0 0 -190z m1330 -95 l0 -95 -95 0 -95 0 0
95 0 95 95 0 95 0 0 -95z m3230 0 l0 -95 190 0 190 0 0 95 0 95 95 0 95 0 0
-190 0 -190 95 0 95 0 0 -95 0 -95 95 0 95 0 0 -95 0 -95 190 0 190 0 0 95 0
95 95 0 95 0 0 -95 0 -95 -95 0 -95 0 0 -95 0 -95 95 0 95 0 0 -95 0 -95 -95
0 -95 0 0 95 0 95 -95 0 -95 0 0 -95 0 -95 -95 0 -95 0 0 -95 0 -95 -95 0 -95
0 0 95 0 95 -95 0 -95 0 0 95 0 95 -95 0 -95 0 0 -95 0 -95 -95 0 -95 0 0 285
0 285 190 0 190 0 0 95 0 95 -285 0 -285 0 0 -95 0 -95 -190 0 -190 0 0 95 0
95 190 0 190 0 0 95 0 95 -95 0 -95 0 0 95 0 95 95 0 95 0 0 -95z m4560 -475
l0 -190 -95 0 -95 0 0 -95 0 -95 -95 0 -95 0 0 -190 0 -190 -95 0 -95 0 0 190
0 190 95 0 95 0 0 95 0 95 -95 0 -95 0 0 95 0 95 95 0 95 0 0 95 0 95 190 0
190 0 0 -190z m-4560 -475 l0 -285 -285 0 -285 0 0 285 0 285 285 0 285 0 0
-285z m3800 0 l0 -285 -285 0 -285 0 0 285 0 285 285 0 285 0 0 -285z m-5700
-190 l0 -95 -95 0 -95 0 0 -95 0 -95 -95 0 -95 0 0 95 0 95 -95 0 -95 0 0 -95
0 -95 -190 0 -190 0 0 95 0 95 95 0 95 0 0 95 0 95 380 0 380 0 0 -95z m760
-190 l0 -95 95 0 95 0 0 95 0 95 95 0 95 0 0 -190 0 -190 -95 0 -95 0 0 -95 0
-95 -95 0 -95 0 0 95 0 95 -95 0 -95 0 0 -190 0 -190 -95 0 -95 0 0 95 0 95
-95 0 -95 0 0 -95 0 -95 -95 0 -95 0 0 95 0 95 95 0 95 0 0 95 0 95 -95 0 -95
0 0 95 0 95 190 0 190 0 0 95 0 95 190 0 190 0 0 -95z m1520 0 l0 -95 95 0 95
0 0 -190 0 -190 -95 0 -95 0 0 95 0 95 -95 0 -95 0 0 -95 0 -95 -95 0 -95 0 0
95 0 95 -190 0 -190 0 0 95 0 95 285 0 285 0 0 95 0 95 95 0 95 0 0 -95z
m3610 -190 l0 -95 190 0 190 0 0 -190 0 -190 -190 0 -190 0 0 190 0 190 -95 0
-95 0 0 95 0 95 95 0 95 0 0 -95z m-7220 -285 l0 -190 -95 0 -95 0 0 190 0
190 95 0 95 0 0 -190z m2850 -95 l0 -95 -95 0 -95 0 0 95 0 95 95 0 95 0 0
-95z" />
        <path d="M3610 9025 l0 -95 95 0 95 0 0 95 0 95 -95 0 -95 0 0 -95z" />
        <path
            d="M3990 8265 l0 -95 -95 0 -95 0 0 -95 0 -95 95 0 95 0 0 95 0 95 95 0
95 0 0 95 0 95 -95 0 -95 0 0 -95z" />
        <path
            d="M5130 8075 l0 -285 95 0 95 0 0 190 0 190 95 0 95 0 0 95 0 95 -190
0 -190 0 0 -285z" />
        <path
            d="M4560 8075 l0 -95 -190 0 -190 0 0 -190 0 -190 -95 0 -95 0 0 -95 0
-95 95 0 95 0 0 95 0 95 95 0 95 0 0 -95 0 -95 285 0 285 0 0 -95 0 -95 -95 0
-95 0 0 -95 0 -95 95 0 95 0 0 95 0 95 95 0 95 0 0 190 0 190 -285 0 -285 0 0
95 0 95 190 0 190 0 0 95 0 95 -95 0 -95 0 0 95 0 95 -95 0 -95 0 0 -95z" />
        <path
            d="M6080 7695 l0 -285 95 0 95 0 0 -475 0 -475 -190 0 -190 0 0 95 0 95
-95 0 -95 0 0 95 0 95 95 0 95 0 0 95 0 95 95 0 95 0 0 95 0 95 -95 0 -95 0 0
-95 0 -95 -285 0 -285 0 0 -95 0 -95 -190 0 -190 0 0 -190 0 -190 95 0 95 0 0
95 0 95 285 0 285 0 0 -190 0 -190 -95 0 -95 0 0 -95 0 -95 -95 0 -95 0 0 95
0 95 -190 0 -190 0 0 -95 0 -95 190 0 190 0 0 -95 0 -95 95 0 95 0 0 95 0 95
95 0 95 0 0 95 0 95 285 0 285 0 0 -95 0 -95 95 0 95 0 0 95 0 95 95 0 95 0 0
190 0 190 95 0 95 0 0 95 0 95 -95 0 -95 0 0 -95 0 -95 -95 0 -95 0 0 380 0
380 -95 0 -95 0 0 190 0 190 95 0 95 0 0 95 0 95 -190 0 -190 0 0 -285z m380
-1330 l0 -95 -95 0 -95 0 0 95 0 95 95 0 95 0 0 -95z" />
        <path d="M3800 6745 l0 -95 95 0 95 0 0 95 0 95 -95 0 -95 0 0 -95z" />
        <path
            d="M7600 6555 l0 -95 -95 0 -95 0 0 -95 0 -95 95 0 95 0 0 95 0 95 95 0
95 0 0 95 0 95 -95 0 -95 0 0 -95z" />
        <path
            d="M3040 5890 l0 -190 95 0 95 0 0 -190 0 -190 190 0 190 0 0 -95 0 -95
-95 0 -95 0 0 -95 0 -95 -95 0 -95 0 0 -95 0 -95 95 0 95 0 0 -95 0 -95 190 0
190 0 0 95 0 95 95 0 95 0 0 285 0 285 -190 0 -190 0 0 95 0 95 -95 0 -95 0 0
95 0 95 95 0 95 0 0 95 0 95 -190 0 -190 0 0 95 0 95 -95 0 -95 0 0 -190z
m760 -855 l0 -95 -95 0 -95 0 0 95 0 95 95 0 95 0 0 -95z" />
        <path
            d="M6650 5605 l0 -475 190 0 190 0 0 95 0 95 -95 0 -95 0 0 95 0 95 285
0 285 0 0 190 0 190 95 0 95 0 0 95 0 95 -95 0 -95 0 0 -95 0 -95 -95 0 -95 0
0 95 0 95 -285 0 -285 0 0 -475z m570 190 l0 -95 -190 0 -190 0 0 95 0 95 190
0 190 0 0 -95z" />
        <path
            d="M2660 5700 l0 -190 -190 0 -190 0 0 -95 0 -95 95 0 95 0 0 -95 0 -95
95 0 95 0 0 190 0 190 95 0 95 0 0 190 0 190 -95 0 -95 0 0 -190z" />
        <path
            d="M7790 4465 l0 -95 -190 0 -190 0 0 -190 0 -190 95 0 95 0 0 -95 0
-95 -190 0 -190 0 0 -95 0 -95 190 0 190 0 0 -95 0 -95 -95 0 -95 0 0 -95 0
-95 285 0 285 0 0 95 0 95 -95 0 -95 0 0 285 0 285 95 0 95 0 0 95 0 95 95 0
95 0 0 95 0 95 -95 0 -95 0 0 95 0 95 -95 0 -95 0 0 -95z m190 -190 l0 -95
-95 0 -95 0 0 -95 0 -95 -95 0 -95 0 0 95 0 95 95 0 95 0 0 95 0 95 95 0 95 0
0 -95z" />
        <path d="M8170 3325 l0 -95 95 0 95 0 0 95 0 95 -95 0 -95 0 0 -95z" />
        <path
            d="M7410 2850 l0 -190 95 0 95 0 0 -95 0 -95 -95 0 -95 0 0 -95 0 -95
-95 0 -95 0 0 -95 0 -95 190 0 190 0 0 190 0 190 95 0 95 0 0 95 0 95 -95 0
-95 0 0 190 0 190 -95 0 -95 0 0 -190z" />
        <path d="M7980 2755 l0 -95 95 0 95 0 0 95 0 95 -95 0 -95 0 0 -95z" />
        <path d="M8360 2565 l0 -95 190 0 190 0 0 95 0 95 -190 0 -190 0 0 -95z" />
        <path
            d="M9120 2565 l0 -95 -95 0 -95 0 0 -190 0 -190 95 0 95 0 0 190 0 190
95 0 95 0 0 95 0 95 -95 0 -95 0 0 -95z" />
        <path
            d="M7980 2375 l0 -95 95 0 95 0 0 -95 0 -95 -95 0 -95 0 0 -95 0 -95
-95 0 -95 0 0 -285 0 -285 190 0 190 0 0 380 0 380 95 0 95 0 0 -95 0 -95 95
0 95 0 0 95 0 95 -95 0 -95 0 0 95 0 95 -95 0 -95 0 0 95 0 95 -95 0 -95 0 0
-95z" />
        <path d="M2660 9405 l0 -95 95 0 95 0 0 95 0 95 -95 0 -95 0 0 -95z" />
        <path d="M1900 8645 l0 -95 95 0 95 0 0 95 0 95 -95 0 -95 0 0 -95z" />
        <path d="M4370 9025 l0 -95 95 0 95 0 0 95 0 95 -95 0 -95 0 0 -95z" />
        <path d="M5130 9025 l0 -95 95 0 95 0 0 95 0 95 -95 0 -95 0 0 -95z" />
        <path d="M1330 5225 l0 -95 95 0 95 0 0 95 0 95 -95 0 -95 0 0 -95z" />
        <path d="M5130 5225 l0 -95 95 0 95 0 0 95 0 95 -95 0 -95 0 0 -95z" />
        <path d="M8930 5225 l0 -95 95 0 95 0 0 95 0 95 -95 0 -95 0 0 -95z" />
        <path d="M6080 1615 l0 -95 95 0 95 0 0 95 0 95 -95 0 -95 0 0 -95z" />
        <path d="M5130 1425 l0 -95 95 0 95 0 0 95 0 95 -95 0 -95 0 0 -95z" />
        <path d="M8930 1425 l0 -95 95 0 95 0 0 95 0 95 -95 0 -95 0 0 -95z" />
        <path d="M7030 10165 l0 -95 285 0 285 0 0 95 0 95 -285 0 -285 0 0 -95z" />
        <path
            d="M8930 9595 l0 -665 665 0 665 0 0 665 0 665 -665 0 -665 0 0 -665z
m1140 0 l0 -475 -475 0 -475 0 0 475 0 475 475 0 475 0 0 -475z" />
        <path d="M9310 9595 l0 -285 285 0 285 0 0 285 0 285 -285 0 -285 0 0 -285z" />
        <path d="M8550 9025 l0 -95 95 0 95 0 0 95 0 95 -95 0 -95 0 0 -95z" />
        <path
            d="M7410 8265 l0 -95 190 0 190 0 0 -285 0 -285 -285 0 -285 0 0 -95 0
-95 285 0 285 0 0 95 0 95 95 0 95 0 0 -95 0 -95 95 0 95 0 0 -95 0 -95 190 0
190 0 0 95 0 95 -95 0 -95 0 0 95 0 95 -95 0 -95 0 0 95 0 95 -95 0 -95 0 0
190 0 190 -95 0 -95 0 0 95 0 95 -190 0 -190 0 0 -95z" />
        <path d="M2280 7220 l0 -190 95 0 95 0 0 190 0 190 -95 0 -95 0 0 -190z" />
        <path d="M1710 7125 l0 -95 95 0 95 0 0 95 0 95 -95 0 -95 0 0 -95z" />
        <path d="M190 4275 l0 -95 95 0 95 0 0 95 0 95 -95 0 -95 0 0 -95z" />
        <path d="M9500 3895 l0 -95 95 0 95 0 0 95 0 95 -95 0 -95 0 0 -95z" />
        <path
            d="M9880 3800 l0 -190 -95 0 -95 0 0 -190 0 -190 95 0 95 0 0 95 0 95
95 0 95 0 0 -95 0 -95 95 0 95 0 0 190 0 190 -95 0 -95 0 0 190 0 190 -95 0
-95 0 0 -190z" />
        <path d="M1330 3705 l0 -95 190 0 190 0 0 95 0 95 -190 0 -190 0 0 -95z" />
        <path d="M8930 3515 l0 -95 95 0 95 0 0 95 0 95 -95 0 -95 0 0 -95z" />
        <path d="M950 3230 l0 -190 95 0 95 0 0 95 0 95 190 0 190 0 0 95 0 95 -285 0
-285 0 0 -190z" />
        <path
            d="M190 855 l0 -665 665 0 665 0 0 665 0 665 -665 0 -665 0 0 -665z
m1140 0 l0 -475 -475 0 -475 0 0 475 0 475 475 0 475 0 0 -475z" />
        <path d="M570 855 l0 -285 285 0 285 0 0 285 0 285 -285 0 -285 0 0 -285z" />
        <path d="M6270 285 l0 -95 95 0 95 0 0 95 0 95 -95 0 -95 0 0 -95z" />
    </g>
</svg>
